<?xml version="1.0" encoding="UTF-8"?>
<svg width="150px" enable-background="new 0 0 59 59" version="1.1" viewBox="0 0 104 10" xml:space="preserve" xmlns="http://www.w3.org/2000/svg">
<path d="M102.966 1.64a1297.23 1297.23 0 0 0-39.92-1.2 1336.657 1336.657 0 0 0-39.998.024c-3.724.056-7.45.129-11.178.218C8.221.768 4.551.892.894 1.995c-.838.252-.81 2.226.003 2.28a1927.937 1927.937 0 0 1 38.026 2.897l-.962.234c-.414.1-.74.825-.687 1.49.06.753.497 1.017.906.95 3.277-.536 6.558-1.265 9.835-1.913.904-.179.839-2.35-.004-2.42-11.117-.93-22.234-1.845-33.363-2.635a1196.296 1196.296 0 0 1 26.087-.357 1275.817 1275.817 0 0 1 62.044 1.32c.894.04 1.086-2.16.187-2.2" fill="#7BA8D5"/>
</svg>
