<?xml version="1.0" encoding="UTF-8"?>
<svg width="150px" enable-background="new 0 0 59 59" version="1.1" viewBox="0 0 69 6" xml:space="preserve" xmlns="http://www.w3.org/2000/svg">
    <path d="M23.23 2.959a362.23 362.23 0 0 0 18.865.062c-2.962.182-5.925.354-8.889.52-3.324-.208-6.65-.405-9.975-.582m44.347-2.2c-8.709.492-17.42.984-26.14 1.186-8.726.203-17.442-.009-26.163-.284-4.934-.156-9.869-.355-14.806-.385-.584-.004-.59.755-.04.85 7.242 1.246 14.6 1.323 21.919 1.74l2.364.133-1.833.096c-4.231.219-8.465.493-12.698.668-.657.027-.715 1.016-.048.989 3.775-.156 7.551-.244 11.326-.418a1132.983 1132.983 0 0 0 14.048-.738c2.75.149 5.502.295 8.253.437 3.825.197 7.651.387 11.479.53.493.019.53-.714.036-.737-4.108-.198-8.213-.432-12.318-.68 4.158-.262 8.315-.539 12.47-.834 2.076-.147 4.15-.29 6.224-.456 2.031-.164 4.062-.391 6.034-.948.627-.177.606-1.19-.107-1.15" fill="#7A9240"/>
</svg>
