<?xml version="1.0" encoding="UTF-8"?>
<svg width="150px" enable-background="new 0 0 59 59" version="1.1" viewBox="0 0 115 11" xml:space="preserve" xmlns="http://www.w3.org/2000/svg">
    <path d="M114.2.94c1.012.062 1.028 1.739.006 1.69a558.985 558.985 0 0 0-24.943-.61c-14.758-.04-29.513.436-44.253 1.21C30.262 4 15.53 5.075.787 5.969-.268 6.033-.255 4.315.781 4.231c8.305-.676 16.614-1.278 24.927-1.824C40.446 1.441 55.194.645 69.954.293c14.75-.352 29.51-.242 44.245.648zm-4.001 5.196c1.06.074 1.074 1.99.006 1.917a468.694 468.694 0 0 0-56.896-.398 487.18 487.18 0 0 0-36.433 3.34c-.441.058-.88-.465-.876-.995.004-.611.423-.945.87-1.004a450.382 450.382 0 0 1 20.414-2.254 467.11 467.11 0 0 1 36.39-1.726 469.65 469.65 0 0 1 36.525 1.12z" fill="#C6AF86"/>
</svg>
